<?xml version="1.0" encoding="UTF-8"?>
<svg version="1.1" xmlns="http://www.w3.org/2000/svg" width="500" height="245">
<path d="M0 0 C165 0 330 0 500 0 C500 80.85 500 161.7 500 245 C335 245 170 245 0 245 C0 164.15 0 83.3 0 0 Z " fill="#FEFEFE" transform="translate(0,0)"/>
<path d="M0 0 C1.65 0 3.3 0 5 0 C5.495 0.99 5.495 0.99 6 2 C6.65484375 2.21527344 7.3096875 2.43054688 7.984375 2.65234375 C10 4 10 4 10.828125 7.25390625 C10.99244173 8.68758678 11.13104898 10.12434476 11.25 11.5625 C11.32444336 12.33956299 11.39888672 13.11662598 11.47558594 13.91723633 C12.07277163 20.99746443 12.20621169 28.08493175 12.25 35.1875 C12.2593457 36.24976807 12.26869141 37.31203613 12.27832031 38.40649414 C12.21784562 53.04951018 5.96403102 60.402184 -4.18652344 70.48925781 C-11.11942496 77.19290233 -18.87277357 82.75544047 -26.68359375 88.37109375 C-27.49103027 88.95189697 -28.2984668 89.5327002 -29.13037109 90.13110352 C-30.71962178 91.2706355 -32.31226594 92.40545355 -33.90869141 93.53491211 C-37.58683999 96.15620978 -40.81902962 98.78014245 -44 102 C-44.66 102 -45.32 102 -46 102 C-46.66 103.32 -47.32 104.64 -48 106 C-53.81834205 95.12223007 -55.0263168 80.82428282 -52.2734375 68.8359375 C-48.81034903 59.51656934 -42.82966567 54.85184646 -34.5625 49.875 C-32.89678865 48.85212698 -31.23141634 47.82870161 -29.56640625 46.8046875 C-28.77717773 46.32708984 -27.98794922 45.84949219 -27.17480469 45.35742188 C-25.2991836 44.18673786 -23.52459569 42.94820268 -21.73828125 41.6484375 C-18.70353385 39.82152822 -17.11829287 39.56117336 -13.625 39.75 C-12.75101563 39.78609375 -11.87703125 39.8221875 -10.9765625 39.859375 C-10.32429688 39.90578125 -9.67203125 39.9521875 -9 40 C-9 44.85826685 -9.84562882 47.30084821 -13.25 50.8125 C-17.41715186 54.69226208 -21.92818408 58.13794439 -26.51855469 61.49926758 C-29.5377906 63.73468084 -31.9378517 65.84527488 -34 69 C-26.98318504 65.47464369 -20.87157506 61.21437372 -15 56 C-13.97120728 55.26753052 -13.97120728 55.26753052 -12.92163086 54.52026367 C-9.14248191 51.48066767 -7.22593906 49.34641805 -6.4074707 44.46899414 C-6.22355428 40.28213332 -6.44453886 36.11765348 -6.6875 31.9375 C-6.78593439 29.78089209 -6.87223581 27.62492708 -6.94136047 25.46717834 C-7.0079747 23.51222193 -7.10975851 21.55855618 -7.21362305 19.60522461 C-6.95892224 15.30674829 -5.88648997 12.84328391 -4 9 C-3.61457031 8.12472656 -3.22914063 7.24945313 -2.83203125 6.34765625 C-2.49558594 5.59355469 -2.15914062 4.83945313 -1.8125 4.0625 C-1.46832031 3.29035156 -1.12414062 2.51820312 -0.76953125 1.72265625 C-0.38861328 0.86994141 -0.38861328 0.86994141 0 0 Z " fill="#1F63A0" transform="translate(195,90)"/>
<path d="M0 0 C2.3125 0 2.3125 0 5 1 C6.04006388 2.98835741 6.68819486 4.93984889 7.32421875 7.08984375 C7.91843885 9.20562555 7.91843885 9.20562555 10 11 C11.90888275 15.53819214 12.17036342 19.19744219 11.94921875 24.0859375 C11.90931135 25.44266516 11.87094791 26.79943895 11.83398438 28.15625 C11.76609521 30.26596088 11.68758653 32.3732757 11.58178711 34.48144531 C10.92464069 44.20264646 10.92464069 44.20264646 15.109375 52.64453125 C17.00569217 54.44337549 17.00569217 54.44337549 19 56 C19.56050049 56.49113281 20.12100098 56.98226562 20.69848633 57.48828125 C22.27809223 58.83071983 23.89794879 60.07763993 25.5625 61.3125 C26.10068359 61.72822266 26.63886719 62.14394531 27.19335938 62.57226562 C30.6216033 65.16716987 34.10478739 67.19004406 38 69 C35.74119985 64.53012084 32.73559251 61.99183964 28.75 59.125 C14.94388207 48.78576021 14.94388207 48.78576021 14.0625 43.0625 C14.041875 42.051875 14.02125 41.04125 14 40 C21.80741367 39.11614185 26.46170128 41.95927787 33 46 C33.93457031 46.55300781 34.86914062 47.10601562 35.83203125 47.67578125 C45.3207405 53.44863234 53.61999739 59.00253775 57 70 C57.50642703 73.6258129 57.52465769 77.15696651 57.4375 80.8125 C57.4257373 81.77575195 57.41397461 82.73900391 57.40185547 83.73144531 C56.9853578 101.0146422 56.9853578 101.0146422 52 106 C51.19691406 104.98550781 50.39382812 103.97101563 49.56640625 102.92578125 C45.85746835 98.60429841 41.56466378 95.46443767 36.9375 92.1875 C35.23634923 90.95659929 33.53583023 89.724825 31.8359375 88.4921875 C31.00932617 87.89631836 30.18271484 87.30044922 29.33105469 86.68652344 C3.20793951 67.78638941 3.20793951 67.78638941 -5 54 C-5.35215576 53.41234863 -5.70431152 52.82469727 -6.06713867 52.21923828 C-7.23204378 49.44797751 -7.24278558 47.30439675 -7.23046875 44.30078125 C-7.22934082 43.18123047 -7.22821289 42.06167969 -7.22705078 40.90820312 C-7.20747314 39.12833008 -7.20747314 39.12833008 -7.1875 37.3125 C-7.17960449 36.10400391 -7.17170898 34.89550781 -7.16357422 33.65039062 C-6.91480745 7.37221118 -6.91480745 7.37221118 -4 3 C-3.01 3 -2.02 3 -1 3 C-0.67 2.01 -0.34 1.02 0 0 Z " fill="#1E62A0" transform="translate(80,90)"/>
<path d="M0 0 C1.05453369 0.00858032 1.05453369 0.00858032 2.13037109 0.01733398 C9.30053752 0.26171537 14.70064277 2.31390322 20.08203125 7.14453125 C26.36527679 13.91698326 27.83118272 20.18647036 27.6015625 29.27734375 C26.72374805 37.32397622 22.68773901 43.8453914 16.45703125 48.9765625 C9.04984266 53.95174733 0.29073229 53.65331665 -8.24609375 52.0234375 C-13.93614196 50.18221332 -18.87366439 46.50213698 -22.0390625 41.4375 C-26.06442111 33.56053927 -27.50964893 25.29184896 -24.87890625 16.6328125 C-20.09137541 6.30430334 -11.60500475 -0.10969076 0 0 Z " fill="#1F62A0" transform="translate(306.75,74.5)"/>
<path d="M0 0 C5.70152608 3.02353656 10.2996626 8.16932606 13.2578125 13.86328125 C15.40915948 21.07969274 15.49238586 30.95546673 12 37.6875 C8.01121861 43.57516605 2.19804837 49.08153713 -4.9375 50.5625 C-13.1928013 51.30962783 -21.09758426 51.78601774 -27.9375 46.5625 C-34.45147159 40.93679726 -38.02071877 34.8380858 -39.265625 26.31640625 C-39.79886795 18.74193248 -37.1641135 12.76391601 -32.9375 6.5625 C-24.38335758 -2.07501613 -11.38158322 -4.35002919 0 0 Z " fill="#1F63A0" transform="translate(377.9375,76.4375)"/>
<path d="M0 0 C4.62 -0.103125 9.24 -0.20625 14 -0.3125 C15.44117188 -0.35802002 16.88234375 -0.40354004 18.3671875 -0.45043945 C25.84698851 -0.53113051 31.34355721 -0.22013315 37 5 C39.93729119 8.39624294 40.58340399 11.4909829 40.4296875 16 C39.65395507 19.61068185 37.60947818 21.45265225 35 24 C34.01 24.495 34.01 24.495 33 25 C33.94875 25.7425 34.8975 26.485 35.875 27.25 C39.06399331 29.74573389 40.6746956 32.11665874 41.37109375 36.1484375 C41.5015325 40.52197219 41.27494704 42.56331941 38.875 46.375 C33.79161888 51.01634798 29.69698774 52.38073061 22.8515625 52.29296875 C21.64838379 52.28547607 20.44520508 52.2779834 19.20556641 52.27026367 C17.69397949 52.24295166 16.18239258 52.21563965 14.625 52.1875 C9.79875 52.125625 4.9725 52.06375 0 52 C0 34.84 0 17.68 0 0 Z " fill="#1D62A0" transform="translate(235,75)"/>
<path d="M0 0 C0 0.99 0 1.98 0 3 C-0.55236328 3.10957031 -1.10472656 3.21914063 -1.67382812 3.33203125 C-19.43402738 6.95175703 -33.78146395 12.54744926 -48 24 C-49.485 25.175625 -49.485 25.175625 -51 26.375 C-63.27487283 37.11551373 -71.68064456 53.15348807 -75 69 C-75.16483887 69.65363525 -75.32967773 70.30727051 -75.49951172 70.98071289 C-80.56130763 91.67718174 -75.63142042 112.89767005 -65.1875 131.125 C-52.84079055 150.76035218 -34.33086256 164.37016786 -11.6171875 169.625 C-3.74196268 171.26023315 3.86023324 171.34087385 11.875 171.1875 C13.2564955 171.17239548 14.63800734 171.15871747 16.01953125 171.14648438 C19.34678866 171.11158307 22.67316761 171.06255856 26 171 C26 171.66 26 172.32 26 173 C17.98693701 175.62272947 10.66223088 176.51653191 2.25 176.4375 C1.10547363 176.42920166 -0.03905273 176.42090332 -1.21826172 176.41235352 C-10.08786438 176.23576585 -17.66419126 175.19807418 -26 172 C-26.6511377 171.75862305 -27.30227539 171.51724609 -27.97314453 171.26855469 C-37.8799218 167.53855804 -45.84499886 162.80605358 -54 156 C-54.70253906 155.45988281 -55.40507813 154.91976562 -56.12890625 154.36328125 C-72.77218487 141.01503557 -82.76647772 119.7730971 -86 99 C-88.11349043 73.576223 -81.54453377 50.56334865 -65.75 30.3125 C-49.26722165 10.89634584 -25.43793642 -1.01601225 0 0 Z " fill="#3496EF" transform="translate(136,35)"/>
<path d="M0 0 C7.26 0 14.52 0 22 0 C22 0.99 22 1.98 22 3 C20.3603125 3.61875 20.3603125 3.61875 18.6875 4.25 C15.44251804 5.68199609 13.50240068 6.64169261 12 10 C11.04060159 22.3224746 12.88761409 37.69525606 20 48 C20.66 48.66 21.32 49.32 22 50 C22.22555081 52.52792663 22.32438591 54.91055576 22.3125 57.4375 C22.32861328 58.11876953 22.34472656 58.80003906 22.36132812 59.50195312 C22.36402423 62.25467226 22.27148317 64.48199764 20.98046875 66.9453125 C17.79017898 68.64428339 14.52375622 68.47198516 11 68.4375 C10.27554688 68.45748047 9.55109375 68.47746094 8.8046875 68.49804688 C3.51934791 68.4931711 3.51934791 68.4931711 1.0625 66.16015625 C-1.37148823 61.21164342 -1.1835145 56.82987828 -1.1875 51.4375 C-1.19974609 50.56158203 -1.21199219 49.68566406 -1.22460938 48.78320312 C-1.22654297 47.94595703 -1.22847656 47.10871094 -1.23046875 46.24609375 C-1.23457764 45.47966553 -1.23868652 44.7132373 -1.24291992 43.92358398 C-1 42 -1 42 1 40 C1.33333333 36.5 1.33333333 36.5 1 33 C-0.78657757 30.78629949 -0.78657757 30.78629949 -3.1640625 30.8046875 C-4.38222656 30.83949219 -4.38222656 30.83949219 -5.625 30.875 C-6.85089844 30.90207031 -6.85089844 30.90207031 -8.1015625 30.9296875 C-8.72804688 30.95289062 -9.35453125 30.97609375 -10 31 C-10.24954005 32.43410368 -10.47392642 33.87260072 -10.6875 35.3125 C-10.81511719 36.11300781 -10.94273438 36.91351563 -11.07421875 37.73828125 C-11.21763714 40.06839272 -11.21763714 40.06839272 -9.65625 41.75 C-7.78626854 43.16130676 -6.29239452 43.60475957 -4 44 C-4 44.66 -4 45.32 -4 46 C-10.27 46 -16.54 46 -23 46 C-23 38.08 -23 30.16 -23 22 C-15.41 22 -7.82 22 0 22 C0 14.74 0 7.48 0 0 Z " fill="#83CD30" transform="translate(126,55)"/>
<path d="M0 0 C4.29 0 8.58 0 13 0 C13.33 6.93 13.66 13.86 14 21 C14.98097656 19.4840625 15.96195312 17.968125 16.97265625 16.40625 C27.32347611 1.19379881 27.32347611 1.19379881 32.22998047 -0.99462891 C36.64622401 -1.80759889 40.67108936 -1.17552315 45 0 C42.18882089 3.77289828 39.36754082 7.53480264 36.48046875 11.25 C36.0407373 11.8169458 35.60100586 12.3838916 35.14794922 12.96801758 C34.27295494 14.0946327 33.39575381 15.21953812 32.51611328 16.3425293 C30.10651993 19.44819594 27.94558408 22.58413739 26 26 C27.16857211 27.49078869 28.33727883 28.98147203 29.5065918 30.47167969 C30.50596716 31.74536456 31.50482413 33.01945634 32.50317383 34.29394531 C36.15513687 38.94841955 39.86849778 43.5482418 43.63671875 48.109375 C45 50 45 50 45 52 C39.8803152 53.16160916 34.96990548 53.9617147 30 52 C24.16414469 47.11387703 20.06626504 40.36001561 16 34 C15.34 33.01 14.68 32.02 14 31 C13.67 37.93 13.34 44.86 13 52 C8.71 52 4.42 52 0 52 C0 34.84 0 17.68 0 0 Z " fill="#2063A1" transform="translate(399,75)"/>
<path d="M0 0 C4.65018738 2.74665273 8.1514448 6.1700771 10.58984375 11.046875 C11.36482394 17.62313544 11.14273209 22.96588295 7.11328125 28.38671875 C3.37066702 32.46520862 0.63537026 33.8180049 -4.76171875 34.421875 C-10.07022843 34.60068796 -14.17865314 34.62016093 -19.03515625 32.359375 C-24.22504097 27.3060662 -26.56834755 24.10578901 -26.78515625 16.859375 C-26.73394437 11.70404617 -26.42438881 8.30339303 -22.94140625 4.4140625 C-16.3906226 -1.43485148 -8.44546284 -3.33985889 0 0 Z " fill="#84CD31" transform="translate(337.41015625,140.953125)"/>
<path d="M0 0 C2.64 0 5.28 0 8 0 C10.17718357 4.90983626 12.02883102 9.83120487 13.6875 14.9375 C13.91244141 15.62134766 14.13738281 16.30519531 14.36914062 17.00976562 C14.91555523 18.67226111 15.45818291 20.33600048 16 22 C16.31022095 21.10692139 16.31022095 21.10692139 16.62670898 20.19580078 C17.56224634 17.50504717 18.49984735 14.81501718 19.4375 12.125 C19.92573242 10.71927734 19.92573242 10.71927734 20.42382812 9.28515625 C20.73642578 8.38925781 21.04902344 7.49335938 21.37109375 6.5703125 C21.65911865 5.74289551 21.94714355 4.91547852 22.24389648 4.06298828 C23 2 23 2 24 0 C26.31 0 28.62 0 31 0 C33.51505089 4.67607703 35.17363312 9.31658076 36.6875 14.375 C36.91244141 15.11105469 37.13738281 15.84710938 37.36914062 16.60546875 C37.91749593 18.4022074 38.45941757 20.20090747 39 22 C41.49067888 16.05777121 43.65310633 10.1416695 45.38671875 3.93359375 C46 2 46 2 47 1 C49.33297433 0.95907063 51.66705225 0.95758277 54 1 C53.42834741 5.76025914 52.4748238 10.05298348 50.93359375 14.58984375 C50.53076172 15.78544922 50.12792969 16.98105469 49.71289062 18.21289062 C49.29201172 19.44201172 48.87113281 20.67113281 48.4375 21.9375 C48.00790487 23.20619117 47.57886341 24.47506996 47.15039062 25.74414062 C46.10568206 28.83131312 45.05540218 31.91647035 44 35 C41.03 35 38.06 35 35 35 C32.06158371 28.12380756 29.819794 21.25160335 28 14 C26.28299455 16.57550818 25.43002925 18.35577992 24.4921875 21.23046875 C24.22792969 22.03291016 23.96367187 22.83535156 23.69140625 23.66210938 C23.42199219 24.49548828 23.15257812 25.32886719 22.875 26.1875 C22.45927734 27.4549707 22.45927734 27.4549707 22.03515625 28.74804688 C21.35270396 30.830703 20.67581319 32.91518006 20 35 C17.03 35 14.06 35 11 35 C9.42960995 30.33818932 7.86312992 25.67509043 6.30029297 21.01074219 C5.76784386 19.42346559 5.23431935 17.83654931 4.69970703 16.25 C3.93240311 13.97228892 3.16894888 11.69331907 2.40625 9.4140625 C2.16563843 8.70255035 1.92502686 7.99103821 1.67712402 7.25796509 C0 2.22774341 0 2.22774341 0 0 Z " fill="#84CD33" transform="translate(371,140)"/>
<path d="M0 0 C7 0 7 0 9.40625 2.08984375 C10.0971875 3.02957031 10.788125 3.96929687 11.5 4.9375 C12.25152344 5.93265625 13.00304687 6.9278125 13.77734375 7.953125 C14.51082031 8.95859375 15.24429687 9.9640625 16 11 C17.34926171 12.7329967 18.70290429 14.46259878 20.0625 16.1875 C21.5165625 18.0746875 21.5165625 18.0746875 23 20 C23.33 13.4 23.66 6.8 24 0 C26.64 0 29.28 0 32 0 C32 11.55 32 23.1 32 35 C25 35 25 35 22.84765625 33.3828125 C22.25855469 32.63773438 21.66945313 31.89265625 21.0625 31.125 C20.40378906 30.31417969 19.74507813 29.50335938 19.06640625 28.66796875 C18.38449219 27.78753906 17.70257813 26.90710938 17 26 C16.24589844 25.06800781 15.49179687 24.13601562 14.71484375 23.17578125 C12.79185712 20.79833217 10.8936518 18.40087996 9 16 C8.67 22.27 8.34 28.54 8 35 C5.36 35 2.72 35 0 35 C0 23.45 0 11.9 0 0 Z " fill="#84CD32" transform="translate(253,140)"/>
<path d="M0 0 C0 5.61 0 11.22 0 17 C7.59 17 15.18 17 23 17 C23 27.13569322 23 27.13569322 20.6875 30.8125 C20.25824219 31.52019531 19.82898438 32.22789063 19.38671875 32.95703125 C18.92910156 33.63121094 18.47148437 34.30539063 18 35 C17.6184375 35.73089844 17.236875 36.46179688 16.84375 37.21484375 C13.9609321 40.00604668 10.62094347 39.67682467 6.8125 39.75 C6.06291016 39.77964844 5.31332031 39.80929688 4.54101562 39.83984375 C2.69458693 39.9104079 0.84728739 39.95748476 -1 40 C-5.80371883 28.539351 -10.31955854 16.65798752 -9 4 C-6.84238474 -0.91456809 -5.8355382 0 0 0 Z " fill="#81CC2E" transform="translate(148,61)"/>
<path d="M0 0 C3.88797448 2.00361875 6.40039562 4.95055106 8 9 C8.66701024 14.56875991 8.73172128 19.45525508 6.3125 24.5625 C2.6072964 28.46798488 -0.04097462 30.15680824 -5.4375 30.4375 C-9.97540458 30.25628584 -12.60899888 29.14878675 -16 26 C-19.25615355 20.57307742 -19.93055051 15.26570676 -19 9 C-14.95136499 0.75278054 -8.80376122 -1.52128994 0 0 Z " fill="#FAFCFD" transform="translate(313,86)"/>
<path d="M0 0 C3.53183959 2.92638137 5.93102501 5.30570943 6.71875 9.93359375 C6.61194309 21.26847737 6.61194309 21.26847737 2.1875 25.8125 C-1.54197564 29.00919341 -4.92162171 29.29058928 -9.66796875 29.0859375 C-12.83926766 28.68158245 -14.43883763 27.9827056 -16.8125 25.8125 C-20.07785281 21.23670956 -21.53259335 16.68032832 -21.26953125 11.05859375 C-20.4606197 7.08317376 -18.5331507 3.79805617 -15.8125 0.8125 C-10.9604913 -2.26877563 -5.20469109 -2.19753624 0 0 Z " fill="#FAFCFD" transform="translate(372.8125,87.1875)"/>
<path d="M0 0 C2.87472735 1.24988145 4.44101438 2.25468584 6.3125 4.75 C7.6178024 9.02189878 7.58533828 12.64447976 5.8125 16.75 C2.96004277 20.29098138 0.53150078 21.8085624 -4 22.375 C-7.45001843 21.9437477 -9.26337663 21.12848485 -12 19 C-14.55147427 14.81593905 -14.7156116 10.77926316 -14 6 C-10.30982043 0.09571269 -6.75330233 -0.72588278 0 0 Z " fill="#FCFDFA" transform="translate(333,147)"/>
<path d="M0 0 C1.8975 -0.061875 3.795 -0.12375 5.75 -0.1875 C7.35101563 -0.23970703 7.35101563 -0.23970703 8.984375 -0.29296875 C12.33799392 0.0328362 13.66154555 0.61143581 16 3 C16.5 6 16.5 6 16 9 C13.66154555 11.38856419 12.33799392 11.9671638 8.984375 12.29296875 C7.91703125 12.25816406 6.8496875 12.22335938 5.75 12.1875 C2.90375 12.0946875 2.90375 12.0946875 0 12 C0 8.04 0 4.08 0 0 Z " fill="#F0F4F8" transform="translate(247,105)"/>
<path d="M0 0 C10.36323087 -0.37011539 10.36323087 -0.37011539 13.33203125 1.35546875 C15 3 15 3 15.4375 5.5 C14.91325635 8.49567799 14.43732079 9.22321363 12 11 C9.08203125 11.29296875 9.08203125 11.29296875 5.8125 11.1875 C4.72582031 11.16042969 3.63914063 11.13335937 2.51953125 11.10546875 C1.27236328 11.05326172 1.27236328 11.05326172 0 11 C0 7.37 0 3.74 0 0 Z " fill="#F3F7FA" transform="translate(247,85)"/>
<path d="M0 0 C0.99 0.33 1.98 0.66 3 1 C3.52667867 5.12156677 3.30005086 6.60869656 0.7265625 9.96484375 C-0.28995079 10.97351074 -1.3249456 11.96379876 -2.375 12.9375 C-2.91503662 13.45747559 -3.45507324 13.97745117 -4.01147461 14.51318359 C-8.6464987 18.88235842 -13.62023647 22.5904345 -19 26 C-19.99 26.66 -20.98 27.32 -22 28 C-22.99 28 -23.98 28 -25 28 C-23.43888076 23.90911525 -20.73735323 21.89015101 -17.375 19.1875 C-16.29007446 18.29983365 -15.20543986 17.41181157 -14.12109375 16.5234375 C-12.26629616 15.01912183 -10.40407982 13.5259082 -8.53515625 12.0390625 C-4.07820564 8.37058546 -1.80226171 5.51942648 0 0 Z " fill="#F2F6F9" transform="translate(186,131)"/>
<path d="M0 0 C10.56 0 21.12 0 32 0 C32 0.66 32 1.32 32 2 C23.64582229 4.81933632 16.08704369 5.37964329 7.3125 5.1875 C6.12205078 5.17396484 4.93160156 5.16042969 3.70507812 5.14648438 C0.80289262 5.11151828 -2.09829809 5.06244696 -5 5 C-5 4.67 -5 4.34 -5 4 C-3.35 4 -1.7 4 0 4 C0 2.68 0 1.36 0 0 Z " fill="#A0CDF7" transform="translate(130,206)"/>
<path d="M0 0 C11.79940868 -0.34293222 22.51566611 0.11604171 34 3 C34 3.66 34 4.32 34 5 C24.43 5 14.86 5 5 5 C6.32 4.67 7.64 4.34 9 4 C9 3.01 9 2.02 9 1 C6.03 1 3.06 1 0 1 C0 0.67 0 0.34 0 0 Z " fill="#9DCCF7" transform="translate(127,34)"/>
<path d="M0 0 C0.66 0.33 1.32 0.66 2 1 C0.6100869 3.77982621 -1.18658353 3.87463341 -4 5 C-7.12649302 11.25298604 -4.45968552 20.5006703 -3 27 C-2.67 27.99 -2.34 28.98 -2 30 C-2.66 30 -3.32 30 -4 30 C-4 31.65 -4 33.3 -4 35 C-4.33 35 -4.66 35 -5 35 C-5.50893577 32.02211984 -6.00730636 29.0430746 -6.5 26.0625 C-6.64308594 25.23169922 -6.78617188 24.40089844 -6.93359375 23.54492188 C-9.2583301 9.31974945 -9.2583301 9.31974945 -6.99682617 5.15063477 C-4.86330548 2.46095858 -3.27455361 1.09151787 0 0 Z " fill="#E9F6DA" transform="translate(145,58)"/>
<path d="M0 0 C3.3 0 6.6 0 10 0 C10 0.99 10 1.98 10 3 C6.37 3.66 2.74 4.32 -1 5 C-0.67 3.35 -0.34 1.7 0 0 Z " fill="#5FACF2" transform="translate(126,35)"/>
<path d="M0 0 C2.31 0.33 4.62 0.66 7 1 C6.67 2.32 6.34 3.64 6 5 C2.37 5 -1.26 5 -5 5 C-5 4.67 -5 4.34 -5 4 C-3.35 4 -1.7 4 0 4 C0 2.68 0 1.36 0 0 Z " fill="#6DB3F3" transform="translate(130,206)"/>
<path d="M0 0 C3.3 0.99 6.6 1.98 10 3 C10 3.66 10 4.32 10 5 C4.06 4.01 4.06 4.01 -2 3 C-1.34 2.67 -0.68 2.34 0 2 C0 1.34 0 0.68 0 0 Z " fill="#D5E9FB" transform="translate(161,37)"/>
<path d="M0 0 C-2.77079887 3.80984844 -6.62868145 4.06840752 -11 5 C-10 2 -10 2 -8.22265625 1.015625 C-7.15337891 0.63664063 -7.15337891 0.63664063 -6.0625 0.25 C-5.35222656 -0.01296875 -4.64195312 -0.2759375 -3.91015625 -0.546875 C-2 -1 -2 -1 0 0 Z " fill="#DAEBFC" transform="translate(173,203)"/>
<path d="M0 0 C1.31722179 0.42307123 2.62872664 0.86397486 3.9375 1.3125 C4.66839844 1.55613281 5.39929688 1.79976562 6.15234375 2.05078125 C8 3 8 3 9 6 C5.7 5.01 2.4 4.02 -1 3 C-0.67 2.01 -0.34 1.02 0 0 Z " fill="#EAF3FD" transform="translate(171,40)"/>
<path d="M0 0 C0.33 0 0.66 0 1 0 C1 2.64 1 5.28 1 8 C-0.65 8 -2.3 8 -4 8 C-2.66666667 5.33333333 -1.33333333 2.66666667 0 0 Z " fill="#96D551" transform="translate(170,93)"/>
<path d="M0 0 C0 3.3 0 6.6 0 10 C-0.33 10 -0.66 10 -1 10 C-1.33 8.35 -1.66 6.7 -2 5 C-2.99 5 -3.98 5 -5 5 C-4.625 3.0625 -4.625 3.0625 -4 1 C-2 0 -2 0 0 0 Z " fill="#F1F9E7" transform="translate(172,90)"/>
<path d="M0 0 C0 0.66 0 1.32 0 2 C-2.97 3.32 -5.94 4.64 -9 6 C-7 2 -7 2 -4.5 0.75 C-2 0 -2 0 0 0 Z " fill="#ECF5FD" transform="translate(181,199)"/>
<path d="M0 0 C2.475 0.495 2.475 0.495 5 1 C5 2.32 5 3.64 5 5 C3.68 5 2.36 5 1 5 C0.67 3.35 0.34 1.7 0 0 Z " fill="#4EA3F1" transform="translate(125,205)"/>
<path d="M0 0 C1.32 0 2.64 0 4 0 C4 1.32 4 2.64 4 4 C2.35 4.33 0.7 4.66 -1 5 C-0.67 3.35 -0.34 1.7 0 0 Z " fill="#4BA1F1" transform="translate(126,35)"/>
</svg>
